<?xml version="1.0" encoding="UTF-8" standalone="no"?>
<!-- Created with Inkscape (http://www.inkscape.org/) -->

<svg
   xmlns:dc="http://purl.org/dc/elements/1.1/"
   xmlns:cc="http://creativecommons.org/ns#"
   xmlns:rdf="http://www.w3.org/1999/02/22-rdf-syntax-ns#"
   xmlns:svg="http://www.w3.org/2000/svg"
   xmlns="http://www.w3.org/2000/svg"
   xmlns:sodipodi="http://sodipodi.sourceforge.net/DTD/sodipodi-0.dtd"
   xmlns:inkscape="http://www.inkscape.org/namespaces/inkscape"
   width="118.74279mm"
   height="141.11111mm"
   viewBox="0 0 420.74217 500.00001"
   id="svg17607"
   version="1.1"
   inkscape:version="0.91 r13725"
   sodipodi:docname="EFL League One badge.svg">
  <defs
     id="defs17609" />
  <sodipodi:namedview
     id="base"
     pagecolor="#ffffff"
     bordercolor="#666666"
     borderopacity="1.0"
     inkscape:pageopacity="0.0"
     inkscape:pageshadow="2"
     inkscape:zoom="1.326"
     inkscape:cx="210.37109"
     inkscape:cy="250.00001"
     inkscape:document-units="px"
     inkscape:current-layer="layer1"
     showgrid="false"
     fit-margin-top="0"
     fit-margin-left="0"
     fit-margin-right="0"
     fit-margin-bottom="0"
     inkscape:window-width="1600"
     inkscape:window-height="838"
     inkscape:window-x="-8"
     inkscape:window-y="-8"
     inkscape:window-maximized="1" />
  <metadata
     id="metadata17612">
    <rdf:RDF>
      <cc:Work
         rdf:about="">
        <dc:format>image/svg+xml</dc:format>
        <dc:type
           rdf:resource="http://purl.org/dc/dcmitype/StillImage" />
        <dc:title></dc:title>
      </cc:Work>
    </rdf:RDF>
  </metadata>
  <g
     inkscape:label="Calque 1"
     inkscape:groupmode="layer"
     id="layer1"
     transform="translate(-135.10065,-325.22137)">
    <g
       id="g18303"
       transform="matrix(2.3972137,0,0,2.3972137,-359.99402,-755.75806)">
      <path
         d="m 294.28535,659.50709 c -40.26056,0 -73.01389,-33.24091 -73.01389,-74.09698 0,-0.49874 0.0111,-104.90745 0.0149,-123.03345 l 0.004,-11.44505 145.99055,0 0,11.44133 c 0.01,17.99573 0.0221,122.35605 0.0221,123.03717 0,40.85607 -32.75703,74.09698 -73.0213,74.09698"
         style="clip-rule:evenodd;fill:#ffffff;fill-opacity:1;fill-rule:nonzero;stroke:none;image-rendering:optimizeQuality;shape-rendering:geometricPrecision;text-rendering:geometricPrecision"
         id="path512-9"
         inkscape:connector-curvature="0" />
      <path
         d="m 294.28535,651.2432 c -35.70486,0 -64.75111,-29.53383 -64.75111,-65.83421 0,-1.30641 0.0111,-108.97556 0.0149,-126.212 l 129.47245,0 c 0.008,17.23644 0.0224,124.90559 0.0224,126.212 0,36.30038 -29.04997,65.83421 -64.75856,65.83421 m 68.86751,-188.86765 0,-7.30995 -137.72777,0 -0.004,7.30995 c -0.004,18.26743 -0.0149,122.54214 -0.0149,123.03344 0,38.57822 30.8998,69.9656 68.8825,69.9656 37.98643,0 68.88993,-31.38738 68.88993,-69.9656 0,-0.68112 -0.0144,-105.17543 -0.0221,-123.03344"
         style="clip-rule:evenodd;fill:#7f8384;fill-opacity:1;fill-rule:nonzero;stroke:none;image-rendering:optimizeQuality;shape-rendering:geometricPrecision;text-rendering:geometricPrecision"
         id="path516-42"
         inkscape:connector-curvature="0" />
      <path
         d="m 235.73541,546.62308 c 0,0.49875 0.40569,0.90444 0.90444,0.90444 l 115.29547,0 c 0.49875,0 0.90444,-0.40569 0.90444,-0.90444 0,-0.49874 -0.40569,-0.90443 -0.90444,-0.90443 l -115.29547,0 c -0.49875,0 -0.90444,0.40569 -0.90444,0.90443"
         style="clip-rule:evenodd;fill:#7f8384;fill-opacity:1;fill-rule:nonzero;stroke:none;image-rendering:optimizeQuality;shape-rendering:geometricPrecision;text-rendering:geometricPrecision"
         id="path520-8"
         inkscape:connector-curvature="0" />
      <path
         d="m 247.93454,538.43438 -0.30893,1.52973 c -0.0968,0.36847 -0.2717,0.46524 -0.58434,0.46524 l -5.22937,0 c -1.49251,0 -2.34484,-0.77417 -2.34484,-2.46022 l 0,-12.20806 c 0,-0.34986 0.1526,-0.42803 0.59923,-0.42803 l 1.84238,0 c 0.44291,0 0.59923,0.0782 0.59923,0.42803 l 0,12.20806 5.03955,0 c 0.30893,0 0.48386,0.0968 0.38709,0.46525"
         style="clip-rule:evenodd;fill:#7f8384;fill-opacity:1;fill-rule:nonzero;stroke:none;image-rendering:optimizeQuality;shape-rendering:geometricPrecision;text-rendering:geometricPrecision"
         id="path524-8"
         inkscape:connector-curvature="0" />
      <path
         d="m 257.95333,538.31788 -0.21214,1.78282 c -0.0186,0.23449 -0.1191,0.32754 -0.36848,0.32754 l -5.73556,0 c -1.4925,0 -2.34483,-0.77417 -2.34483,-2.46022 l 0,-12.20807 c 0,-0.2717 0.11537,-0.4243 0.4243,-0.4243 l 7.84963,0 c 0.23076,0 0.36848,0.11538 0.32753,0.34614 l -0.19353,1.78283 c -0.0186,0.23448 -0.134,0.33125 -0.36848,0.33125 l -4.99861,0 0,3.79641 4.61152,0 c 0.27171,0 0.34987,0.1191 0.33126,0.33126 l -0.21587,1.78282 c -0.0186,0.21215 -0.134,0.30892 -0.38709,0.30892 l -4.33982,0 0,3.95274 5.28893,0 c 0.25308,0 0.34986,0.0968 0.33124,0.34986"
         style="clip-rule:evenodd;fill:#7f8384;fill-opacity:1;fill-rule:nonzero;stroke:none;image-rendering:optimizeQuality;shape-rendering:geometricPrecision;text-rendering:geometricPrecision"
         id="path528-1"
         inkscape:connector-curvature="0" />
      <path
         d="m 267.00256,535.08163 c -0.42802,-2.24807 -1.12403,-4.98 -1.72327,-7.28762 l -0.13771,0 c -0.58063,2.30762 -1.27664,5.03955 -1.68606,7.28762 l 3.54704,0 z m -7.8273,4.97999 c 1.33618,-5.13632 2.65377,-10.17214 3.9304,-14.16581 0.1191,-0.38709 0.36847,-0.56202 0.83372,-0.56202 l 2.51977,0 c 0.54341,0 0.73696,0.17493 0.85234,0.56202 1.26175,3.99367 2.61655,9.02949 3.95273,14.18442 0.0595,0.2531 -0.0373,0.34987 -0.32753,0.34987 l -2.26669,0 c -0.31263,0 -0.50618,-0.13399 -0.5434,-0.33126 l -0.58062,-2.63515 -4.59292,0 c -0.21215,0.89327 -0.38709,1.76421 -0.58062,2.6761 -0.0409,0.17493 -0.21588,0.29031 -0.46525,0.29031 l -2.4044,0 c -0.30892,0 -0.38708,-0.13399 -0.32753,-0.36848"
         style="clip-rule:evenodd;fill:#7f8384;fill-opacity:1;fill-rule:nonzero;stroke:none;image-rendering:optimizeQuality;shape-rendering:geometricPrecision;text-rendering:geometricPrecision"
         id="path532-8"
         inkscape:connector-curvature="0" />
      <path
         d="m 279.79237,534.50026 c -1.29896,0 -1.95776,-0.73695 -1.95776,-1.97637 l 0,-0.13771 c 0,-0.24937 0.0968,-0.36476 0.33126,-0.36476 l 4.4552,0 c 0.25309,0 0.36847,0.11539 0.36847,0.34615 l 0,6.55066 c 0,0.5248 -0.13399,0.79651 -0.52108,0.96772 -1.04959,0.46524 -2.85102,0.75928 -4.47752,0.75928 -3.91551,0 -5.67973,-1.57067 -5.67973,-5.08049 l 0,-5.17354 c 0,-3.74058 2.07314,-5.27031 6.02587,-5.27031 1.35852,0 2.71332,0.17493 3.64381,0.42803 0.29031,0.0744 0.36847,0.19354 0.36847,0.52107 l 0,1.70467 c 0,0.2717 -0.17493,0.33125 -0.46524,0.25309 -0.85233,-0.25309 -2.12896,-0.38708 -3.31255,-0.38708 -1.89821,0 -3.23812,0.61784 -3.23812,3.00363 l 0,4.55196 c 0,1.16498 0.17494,1.78283 0.60296,2.27041 0.34986,0.40569 1.04588,0.65878 2.11035,0.65878 0.75557,0 1.66745,-0.1191 2.11409,-0.23448 l 0,-3.39071 -0.36848,0 z"
         style="clip-rule:evenodd;fill:#7f8384;fill-opacity:1;fill-rule:nonzero;stroke:none;image-rendering:optimizeQuality;shape-rendering:geometricPrecision;text-rendering:geometricPrecision"
         id="path536-2"
         inkscape:connector-curvature="0" />
      <path
         d="m 286.78744,539.44192 c -0.91188,-0.83373 -1.3548,-2.1513 -1.3548,-3.95274 l 0,-9.826 c 0,-0.19354 0.0968,-0.32753 0.34615,-0.32753 l 2.34484,0 c 0.23448,0 0.34987,0.11538 0.34987,0.32753 l 0,9.5543 c 0,0.93049 0.0968,1.70466 0.50246,2.21085 0.34986,0.44291 0.95282,0.69601 1.78282,0.69601 0.85233,0 1.45529,-0.2531 1.80516,-0.69601 0.40569,-0.50619 0.48386,-1.28036 0.48386,-2.21085 l 0,-9.5543 c 0,-0.21215 0.13398,-0.32753 0.36847,-0.32753 l 2.32251,0 c 0.2531,0 0.34987,0.13399 0.34987,0.32753 l 0,9.826 c 0,1.86099 -0.48386,3.19718 -1.47018,4.0309 -0.89328,0.75556 -2.17363,1.12403 -3.85969,1.12403 -1.78282,0 -3.1004,-0.38708 -3.97134,-1.20219"
         style="clip-rule:evenodd;fill:#7f8384;fill-opacity:1;fill-rule:nonzero;stroke:none;image-rendering:optimizeQuality;shape-rendering:geometricPrecision;text-rendering:geometricPrecision"
         id="path540-4"
         inkscape:connector-curvature="0" />
      <path
         d="m 307.36733,538.31788 -0.21215,1.78282 c -0.0186,0.23449 -0.1191,0.32754 -0.36847,0.32754 l -5.73556,0 c -1.49251,0 -2.34484,-0.77417 -2.34484,-2.46022 l 0,-12.20807 c 0,-0.2717 0.11537,-0.4243 0.4243,-0.4243 l 7.84964,0 c 0.23077,0 0.36848,0.11538 0.32753,0.34614 l -0.19354,1.78283 c -0.0186,0.23448 -0.13399,0.33125 -0.36848,0.33125 l -4.9986,0 0,3.79641 4.61151,0 c 0.27172,0 0.34988,0.1191 0.33127,0.33126 l -0.21216,1.78282 c -0.0224,0.21215 -0.13772,0.30892 -0.3908,0.30892 l -4.33982,0 0,3.95274 5.28892,0 c 0.25309,0 0.34986,0.0968 0.33125,0.34986"
         style="clip-rule:evenodd;fill:#7f8384;fill-opacity:1;fill-rule:nonzero;stroke:none;image-rendering:optimizeQuality;shape-rendering:geometricPrecision;text-rendering:geometricPrecision"
         id="path544-8"
         inkscape:connector-curvature="0" />
      <path
         d="m 321.02883,537.54259 c 0.46524,-0.46524 0.71834,-1.28035 0.71834,-2.24807 l 0,-4.82367 c 0,-1.10542 -0.27171,-1.78282 -0.73695,-2.24807 -0.38709,-0.38708 -1.02727,-0.58435 -1.78282,-0.58435 -0.75557,0 -1.41436,0.19727 -1.80144,0.58435 -0.46525,0.46525 -0.71835,1.14265 -0.71835,2.24807 l 0,4.82367 c 0,0.96772 0.2531,1.78283 0.71835,2.24807 0.38708,0.38709 1.04587,0.58063 1.80144,0.58063 0.75555,0 1.41434,-0.19354 1.80143,-0.58063 m -5.89189,1.82005 c -0.9491,-0.83 -1.47389,-2.09175 -1.47389,-3.75919 l 0,-5.44524 c 0,-1.89821 0.71834,-3.27534 1.95775,-4.10906 0.9305,-0.61785 2.1513,-0.92677 3.6066,-0.92677 1.51111,0 2.79147,0.34614 3.74057,1.02726 1.14265,0.83 1.82004,2.16991 1.82004,4.00857 l 0,5.44524 c 0,1.84237 -0.64017,3.17856 -1.80143,4.01228 -0.93049,0.6774 -2.21085,1.02727 -3.75918,1.02727 -1.727,0 -3.11902,-0.42431 -4.09046,-1.28036"
         style="clip-rule:evenodd;fill:#7f8384;fill-opacity:1;fill-rule:nonzero;stroke:none;image-rendering:optimizeQuality;shape-rendering:geometricPrecision;text-rendering:geometricPrecision"
         id="path548-9"
         inkscape:connector-curvature="0" />
      <path
         d="m 337.77173,525.66355 0,14.43753 c 0,0.21215 -0.15631,0.32753 -0.36847,0.32753 l -1.51112,0 c -0.42802,0 -0.62157,-0.17121 -0.75556,-0.40569 l -5.38941,-9.31982 -0.11539,0 0,9.39798 c 0,0.23076 -0.11537,0.32753 -0.36847,0.32753 l -0.13398,0 c -1.37714,0 -2.16992,-0.77417 -2.16992,-2.46022 l 0,-12.30484 c 0,-0.21215 0.0744,-0.33125 0.30892,-0.33125 l 1.70467,0 c 0.34986,0 0.54341,0.13771 0.65878,0.40942 l 5.34848,9.20443 0.11538,0 0,-9.2826 c 0,-0.23076 0.1005,-0.33125 0.31264,-0.33125 l 2.01359,0 c 0.2531,0 0.34986,0.10049 0.34986,0.33125"
         style="clip-rule:evenodd;fill:#7f8384;fill-opacity:1;fill-rule:nonzero;stroke:none;image-rendering:optimizeQuality;shape-rendering:geometricPrecision;text-rendering:geometricPrecision"
         id="path552-2"
         inkscape:connector-curvature="0" />
      <path
         d="m 349.10774,538.31788 -0.21216,1.78282 c -0.0186,0.23449 -0.1191,0.32754 -0.36847,0.32754 l -5.73555,0 c -1.49252,0 -2.34484,-0.77417 -2.34484,-2.46022 l 0,-12.20807 c 0,-0.2717 0.11538,-0.4243 0.4243,-0.4243 l 7.84964,0 c 0.23449,0 0.36847,0.11538 0.32753,0.34614 l -0.19354,1.78283 c -0.0186,0.23448 -0.13399,0.33125 -0.36848,0.33125 l -4.9986,0 0,3.79641 4.61152,0 c 0.2717,0 0.34986,0.1191 0.33125,0.33126 l -0.21215,1.78282 c -0.0224,0.21215 -0.13771,0.30892 -0.39081,0.30892 l -4.33981,0 0,3.95274 5.28891,0 c 0.2531,0 0.34987,0.0968 0.33126,0.34986"
         style="clip-rule:evenodd;fill:#7f8384;fill-opacity:1;fill-rule:nonzero;stroke:none;image-rendering:optimizeQuality;shape-rendering:geometricPrecision;text-rendering:geometricPrecision"
         id="path556-2"
         inkscape:connector-curvature="0" />
      <path
         d="m 315.99821,635.89752 0,-4.69713 -6.30502,0 0,-15.67322 -5.06188,0 0,17.22528 c 0,1.73816 1.40691,3.14507 3.14135,3.14507 l 8.22555,0 z m -42.58679,-3.14507 c 0,1.73816 1.40691,3.14507 3.14507,3.14507 l 9.10766,0 0,-4.69713 -7.18713,0 0,-3.16367 6.61023,0 0,-4.74179 -6.61023,0 0,-3.04085 7.22063,0 0,-4.72691 -12.28623,0 0,17.22528 z m 18.86668,3.14507 c -1.73444,0 -3.14135,-1.40691 -3.14135,-3.14507 l 0,-17.22528 12.3495,0 0,4.72691 -7.2839,0 0,3.04085 6.61022,0 0,4.74179 -6.61022,0 0,7.8608 -1.92425,0 z"
         style="clip-rule:evenodd;fill:#293f9c;fill-opacity:1;fill-rule:nonzero;stroke:none;image-rendering:optimizeQuality;shape-rendering:geometricPrecision;text-rendering:geometricPrecision"
         id="path560-3"
         inkscape:connector-curvature="0" />
      <path
         d="m 303.26684,576.96459 c -2.12525,0 -3.84852,1.72327 -3.84852,3.84851 0,2.12525 1.72327,3.84852 3.84852,3.84852 2.12524,0 3.84852,-1.72327 3.84852,-3.84852 0,-2.12524 -1.72328,-3.84851 -3.84852,-3.84851"
         style="clip-rule:evenodd;fill:#293f9c;fill-opacity:1;fill-rule:nonzero;stroke:none;image-rendering:optimizeQuality;shape-rendering:geometricPrecision;text-rendering:geometricPrecision"
         id="path564-9"
         inkscape:connector-curvature="0" />
      <path
         d="m 298.84142,570.28737 c -1.89821,0 -3.43539,1.53718 -3.43539,3.43538 0,1.89821 1.53718,3.4391 3.43539,3.4391 1.8982,0 3.43538,-1.54089 3.43538,-3.4391 0,-1.8982 -1.53718,-3.43538 -3.43538,-3.43538"
         style="clip-rule:evenodd;fill:#293f9c;fill-opacity:1;fill-rule:nonzero;stroke:none;image-rendering:optimizeQuality;shape-rendering:geometricPrecision;text-rendering:geometricPrecision"
         id="path568-0"
         inkscape:connector-curvature="0" />
      <path
         d="m 305.67607,566.76788 c -1.85727,0 -3.35722,1.50367 -3.35722,3.35722 0,1.85726 1.49995,3.36093 3.35722,3.36093 1.85354,0 3.35722,-1.50367 3.35722,-3.36093 0,-1.85355 -1.50368,-3.35722 -3.35722,-3.35722"
         style="clip-rule:evenodd;fill:#293f9c;fill-opacity:1;fill-rule:nonzero;stroke:none;image-rendering:optimizeQuality;shape-rendering:geometricPrecision;text-rendering:geometricPrecision"
         id="path572-7"
         inkscape:connector-curvature="0" />
      <path
         d="m 294.21724,565.5039 c -1.5744,0 -2.85103,1.27663 -2.85103,2.85103 0,1.57439 1.27663,2.8473 2.85103,2.8473 1.5744,0 2.85103,-1.27291 2.85103,-2.8473 0,-1.5744 -1.27663,-2.85103 -2.85103,-2.85103"
         style="clip-rule:evenodd;fill:#293f9c;fill-opacity:1;fill-rule:nonzero;stroke:none;image-rendering:optimizeQuality;shape-rendering:geometricPrecision;text-rendering:geometricPrecision"
         id="path576-0"
         inkscape:connector-curvature="0" />
      <path
         d="m 289.06008,563.13747 c -1.29897,0 -2.35229,1.05332 -2.35229,2.35228 0,1.29897 1.05332,2.35229 2.35229,2.35229 1.29896,0 2.35228,-1.05332 2.35228,-2.35229 0,-1.29896 -1.05332,-2.35228 -2.35228,-2.35228"
         style="clip-rule:evenodd;fill:#293f9c;fill-opacity:1;fill-rule:nonzero;stroke:none;image-rendering:optimizeQuality;shape-rendering:geometricPrecision;text-rendering:geometricPrecision"
         id="path580-15"
         inkscape:connector-curvature="0" />
      <path
         d="m 284.25985,562.54195 c -1.02726,0 -1.86098,0.83372 -1.86098,1.86099 0,1.02726 0.83372,1.85726 1.86098,1.85726 1.02726,0 1.86099,-0.83 1.86099,-1.85726 0,-1.02727 -0.83373,-1.86099 -1.86099,-1.86099"
         style="clip-rule:evenodd;fill:#293f9c;fill-opacity:1;fill-rule:nonzero;stroke:none;image-rendering:optimizeQuality;shape-rendering:geometricPrecision;text-rendering:geometricPrecision"
         id="path584-9"
         inkscape:connector-curvature="0" />
      <path
         d="m 290.15434,559.18697 c -0.9826,0 -1.78283,0.80022 -1.78283,1.78282 0,0.98633 0.80023,1.78283 1.78283,1.78283 0.98632,0 1.78282,-0.7965 1.78282,-1.78283 0,-0.98632 -0.7965,-1.78282 -1.78282,-1.78282"
         style="clip-rule:evenodd;fill:#293f9c;fill-opacity:1;fill-rule:nonzero;stroke:none;image-rendering:optimizeQuality;shape-rendering:geometricPrecision;text-rendering:geometricPrecision"
         id="path588-83"
         inkscape:connector-curvature="0" />
      <path
         d="m 294.62256,555.78993 c -0.96771,0 -1.75305,0.78533 -1.75305,1.75305 0,0.96771 0.78534,1.75304 1.75305,1.75304 0.96771,0 1.75305,-0.78533 1.75305,-1.75304 0,-0.96772 -0.78534,-1.75305 -1.75305,-1.75305"
         style="clip-rule:evenodd;fill:#293f9c;fill-opacity:1;fill-rule:nonzero;stroke:none;image-rendering:optimizeQuality;shape-rendering:geometricPrecision;text-rendering:geometricPrecision"
         id="path592-7"
         inkscape:connector-curvature="0" />
      <path
         d="m 290.7037,556.04414 c -0.76673,0 -1.38458,0.61784 -1.38458,1.38457 0,0.763 0.61785,1.38457 1.38458,1.38457 0.76301,0 1.38457,-0.62157 1.38457,-1.38457 0,-0.76673 -0.62156,-1.38457 -1.38457,-1.38457"
         style="clip-rule:evenodd;fill:#293f9c;fill-opacity:1;fill-rule:nonzero;stroke:none;image-rendering:optimizeQuality;shape-rendering:geometricPrecision;text-rendering:geometricPrecision"
         id="path596-53"
         inkscape:connector-curvature="0" />
      <path
         d="m 287.3208,556.76732 c -0.69229,0 -1.25803,0.56201 -1.25803,1.25802 0.004,0.69229 0.56574,1.25431 1.25803,1.25431 0.69601,0 1.2543,-0.56202 1.2543,-1.25431 0,-0.69601 -0.56201,-1.25802 -1.2543,-1.25802"
         style="clip-rule:evenodd;fill:#293f9c;fill-opacity:1;fill-rule:nonzero;stroke:none;image-rendering:optimizeQuality;shape-rendering:geometricPrecision;text-rendering:geometricPrecision"
         id="path600-61"
         inkscape:connector-curvature="0" />
      <path
         d="m 285.74305,559.49887 c -0.74811,0 -1.35107,0.60296 -1.35107,1.35108 0,0.74439 0.60296,1.35107 1.35107,1.35107 0.7444,0 1.35108,-0.60668 1.35108,-1.35107 0,-0.74812 -0.60668,-1.35108 -1.35108,-1.35108"
         style="clip-rule:evenodd;fill:#293f9c;fill-opacity:1;fill-rule:nonzero;stroke:none;image-rendering:optimizeQuality;shape-rendering:geometricPrecision;text-rendering:geometricPrecision"
         id="path604-14"
         inkscape:connector-curvature="0" />
      <path
         d="m 281.39989,559.86139 c -0.68484,0 -1.2357,0.55457 -1.2357,1.23569 0,0.68485 0.55086,1.23942 1.2357,1.23942 0.68484,0 1.23569,-0.55457 1.23569,-1.23942 0,-0.68112 -0.55085,-1.23569 -1.23569,-1.23569"
         style="clip-rule:evenodd;fill:#293f9c;fill-opacity:1;fill-rule:nonzero;stroke:none;image-rendering:optimizeQuality;shape-rendering:geometricPrecision;text-rendering:geometricPrecision"
         id="path608-5"
         inkscape:connector-curvature="0" />
      <path
         d="m 283.45293,558.1478 c -0.50991,0 -0.92305,0.41313 -0.92305,0.92304 0,0.51364 0.41314,0.92677 0.92305,0.92677 0.50991,0 0.92304,-0.41313 0.92304,-0.92677 0,-0.50991 -0.41313,-0.92304 -0.92304,-0.92304"
         style="clip-rule:evenodd;fill:#293f9c;fill-opacity:1;fill-rule:nonzero;stroke:none;image-rendering:optimizeQuality;shape-rendering:geometricPrecision;text-rendering:geometricPrecision"
         id="path612-43"
         inkscape:connector-curvature="0" />
      <path
         d="m 278.41524,561.1544 c -0.47268,0 -0.85605,0.38337 -0.85605,0.85233 0,0.47269 0.38337,0.85606 0.85605,0.85606 0.47269,0 0.85233,-0.38337 0.85233,-0.85606 0,-0.46896 -0.37964,-0.85233 -0.85233,-0.85233"
         style="clip-rule:evenodd;fill:#293f9c;fill-opacity:1;fill-rule:nonzero;stroke:none;image-rendering:optimizeQuality;shape-rendering:geometricPrecision;text-rendering:geometricPrecision"
         id="path616-1"
         inkscape:connector-curvature="0" />
      <path
         d="m 280.04435,562.79542 c -0.82256,0 -1.48879,0.66623 -1.48879,1.48879 0,0.82255 0.66623,1.49251 1.48879,1.49251 0.82255,0 1.48878,-0.66996 1.48878,-1.49251 0,-0.82256 -0.66623,-1.48879 -1.48878,-1.48879"
         style="clip-rule:evenodd;fill:#293f9c;fill-opacity:1;fill-rule:nonzero;stroke:none;image-rendering:optimizeQuality;shape-rendering:geometricPrecision;text-rendering:geometricPrecision"
         id="path620-28"
         inkscape:connector-curvature="0" />
      <path
         d="m 276.39124,563.25024 c -0.64018,0 -1.15754,0.51736 -1.15754,1.15754 0,0.64018 0.51736,1.16125 1.15754,1.16125 0.64018,0 1.15753,-0.52107 1.15753,-1.16125 0,-0.64018 -0.51735,-1.15754 -1.15753,-1.15754"
         style="clip-rule:evenodd;fill:#293f9c;fill-opacity:1;fill-rule:nonzero;stroke:none;image-rendering:optimizeQuality;shape-rendering:geometricPrecision;text-rendering:geometricPrecision"
         id="path624-6"
         inkscape:connector-curvature="0" />
      <path
         d="m 273.9954,565.32785 c -0.42803,0 -0.77417,0.34614 -0.77417,0.77417 0,0.42802 0.34614,0.77417 0.77417,0.77417 0.42803,0 0.77417,-0.34615 0.77417,-0.77417 0,-0.42803 -0.34614,-0.77417 -0.77417,-0.77417"
         style="clip-rule:evenodd;fill:#293f9c;fill-opacity:1;fill-rule:nonzero;stroke:none;image-rendering:optimizeQuality;shape-rendering:geometricPrecision;text-rendering:geometricPrecision"
         id="path628-8"
         inkscape:connector-curvature="0" />
      <path
         d="m 300.22041,562.57768 c -1.54835,0 -2.80265,1.25431 -2.80265,2.80265 0,1.55206 1.2543,2.80636 2.80265,2.80636 1.54833,0 2.80636,-1.2543 2.80636,-2.80636 0,-1.54834 -1.25803,-2.80265 -2.80636,-2.80265"
         style="clip-rule:evenodd;fill:#293f9c;fill-opacity:1;fill-rule:nonzero;stroke:none;image-rendering:optimizeQuality;shape-rendering:geometricPrecision;text-rendering:geometricPrecision"
         id="path632-5"
         inkscape:connector-curvature="0" />
      <path
         d="m 310.58758,572.93109 c -1.95403,0 -3.53586,1.58184 -3.53586,3.53587 0,1.95031 1.58183,3.53587 3.53586,3.53587 1.95404,0 3.53587,-1.58556 3.53587,-3.53587 0,-1.95403 -1.58183,-3.53587 -3.53587,-3.53587"
         style="clip-rule:evenodd;fill:#293f9c;fill-opacity:1;fill-rule:nonzero;stroke:none;image-rendering:optimizeQuality;shape-rendering:geometricPrecision;text-rendering:geometricPrecision"
         id="path636-7"
         inkscape:connector-curvature="0" />
      <path
         d="m 314.43759,566.73401 c -1.6935,0 -3.06691,1.37341 -3.06691,3.0669 0,1.6935 1.37341,3.06318 3.06691,3.06318 1.6935,0 3.0669,-1.36968 3.0669,-3.06318 0,-1.69349 -1.3734,-3.0669 -3.0669,-3.0669"
         style="clip-rule:evenodd;fill:#293f9c;fill-opacity:1;fill-rule:nonzero;stroke:none;image-rendering:optimizeQuality;shape-rendering:geometricPrecision;text-rendering:geometricPrecision"
         id="path640-8"
         inkscape:connector-curvature="0" />
      <path
         d="m 310.04343,561.60848 c -1.57439,0 -2.85103,1.27664 -2.85103,2.85103 0,1.5744 1.27664,2.85103 2.85103,2.85103 1.57439,0 2.85103,-1.27663 2.85103,-2.85103 0,-1.57439 -1.27664,-2.85103 -2.85103,-2.85103"
         style="clip-rule:evenodd;fill:#293f9c;fill-opacity:1;fill-rule:nonzero;stroke:none;image-rendering:optimizeQuality;shape-rendering:geometricPrecision;text-rendering:geometricPrecision"
         id="path644-7"
         inkscape:connector-curvature="0" />
      <path
         d="m 304.67895,558.11839 c -1.46646,0 -2.65376,1.18731 -2.65376,2.65377 0,1.46645 1.1873,2.65376 2.65376,2.65376 1.46646,0 2.65377,-1.18731 2.65377,-2.65376 0,-1.46646 -1.18731,-2.65377 -2.65377,-2.65377"
         style="clip-rule:evenodd;fill:#293f9c;fill-opacity:1;fill-rule:nonzero;stroke:none;image-rendering:optimizeQuality;shape-rendering:geometricPrecision;text-rendering:geometricPrecision"
         id="path648-6"
         inkscape:connector-curvature="0" />
      <path
         d="m 299.33643,556.32924 c -1.22452,0 -2.21829,0.99377 -2.21829,2.21829 0,1.22453 0.99377,2.2183 2.21829,2.2183 1.22453,0 2.2183,-0.99377 2.2183,-2.2183 0,-1.22452 -0.99377,-2.21829 -2.2183,-2.21829"
         style="clip-rule:evenodd;fill:#293f9c;fill-opacity:1;fill-rule:nonzero;stroke:none;image-rendering:optimizeQuality;shape-rendering:geometricPrecision;text-rendering:geometricPrecision"
         id="path652-9"
         inkscape:connector-curvature="0" />
      <path
         d="m 294.8857,560.11151 c -1.28035,0 -2.32251,1.03843 -2.32251,2.32251 0,1.28035 1.04216,2.31878 2.32251,2.31878 1.28036,0 2.31879,-1.03843 2.32251,-2.31878 -0.004,-1.28408 -1.04215,-2.32251 -2.32251,-2.32251"
         style="clip-rule:evenodd;fill:#293f9c;fill-opacity:1;fill-rule:nonzero;stroke:none;image-rendering:optimizeQuality;shape-rendering:geometricPrecision;text-rendering:geometricPrecision"
         id="path656-2"
         inkscape:connector-curvature="0" />
      <path
         d="m 295.48867,591.77877 c 0,2.12525 -1.72328,3.84852 -3.84853,3.84852 -2.12523,0 -3.84851,-1.72327 -3.84851,-3.84852 0,-2.12524 1.72328,-3.84851 3.84851,-3.84851 2.12525,0 3.84853,1.72327 3.84853,3.84851"
         style="clip-rule:evenodd;fill:#293f9c;fill-opacity:1;fill-rule:nonzero;stroke:none;image-rendering:optimizeQuality;shape-rendering:geometricPrecision;text-rendering:geometricPrecision"
         id="path660-4"
         inkscape:connector-curvature="0" />
      <path
         d="m 299.99187,588.05345 c -1.8982,0 -3.43537,1.53718 -3.43537,3.43538 0,1.89821 1.53717,3.4391 3.43537,3.4391 1.89821,0 3.43538,-1.54089 3.43538,-3.4391 0,-1.8982 -1.53717,-3.43538 -3.43538,-3.43538"
         style="clip-rule:evenodd;fill:#293f9c;fill-opacity:1;fill-rule:nonzero;stroke:none;image-rendering:optimizeQuality;shape-rendering:geometricPrecision;text-rendering:geometricPrecision"
         id="path664-2"
         inkscape:connector-curvature="0" />
      <path
         d="m 299.69077,595.85024 c -1.85355,0 -3.35722,1.50367 -3.35722,3.35721 0,1.85727 1.50367,3.36094 3.35722,3.36094 1.85354,0 3.35722,-1.50367 3.35722,-3.36094 0,-1.85354 -1.50368,-3.35721 -3.35722,-3.35721"
         style="clip-rule:evenodd;fill:#293f9c;fill-opacity:1;fill-rule:nonzero;stroke:none;image-rendering:optimizeQuality;shape-rendering:geometricPrecision;text-rendering:geometricPrecision"
         id="path668-8"
         inkscape:connector-curvature="0" />
      <path
         d="m 306.95494,587.32097 c -1.5744,0 -2.85103,1.27664 -2.85103,2.85103 0,1.57439 1.27663,2.84731 2.85103,2.84731 1.57439,0 2.85103,-1.27292 2.85103,-2.84731 0,-1.57439 -1.27664,-2.85103 -2.85103,-2.85103"
         style="clip-rule:evenodd;fill:#293f9c;fill-opacity:1;fill-rule:nonzero;stroke:none;image-rendering:optimizeQuality;shape-rendering:geometricPrecision;text-rendering:geometricPrecision"
         id="path672-5"
         inkscape:connector-curvature="0" />
      <path
         d="m 312.01384,584.78445 c -1.29896,0 -2.35228,1.05331 -2.35228,2.35228 0,1.29897 1.05332,2.35229 2.35228,2.35229 1.29897,0 2.35229,-1.05332 2.35229,-2.35229 0,-1.29897 -1.05332,-2.35228 -2.35229,-2.35228"
         style="clip-rule:evenodd;fill:#293f9c;fill-opacity:1;fill-rule:nonzero;stroke:none;image-rendering:optimizeQuality;shape-rendering:geometricPrecision;text-rendering:geometricPrecision"
         id="path676-0"
         inkscape:connector-curvature="0" />
      <path
         d="m 315.35692,581.66357 c -1.02727,0 -1.86099,0.83373 -1.86099,1.86099 0,1.02726 0.83372,1.85726 1.86099,1.85726 1.02726,0 1.86098,-0.83 1.86098,-1.85726 0,-1.02726 -0.83372,-1.86099 -1.86098,-1.86099"
         style="clip-rule:evenodd;fill:#293f9c;fill-opacity:1;fill-rule:nonzero;stroke:none;image-rendering:optimizeQuality;shape-rendering:geometricPrecision;text-rendering:geometricPrecision"
         id="path680-15"
         inkscape:connector-curvature="0" />
      <path
         d="m 315.38222,588.5615 c -0.98259,0 -1.78282,0.7965 -1.78282,1.78283 0,0.98632 0.80023,1.78282 1.78282,1.78282 0.98633,0 1.78283,-0.7965 1.78283,-1.78282 0,-0.98633 -0.7965,-1.78283 -1.78283,-1.78283"
         style="clip-rule:evenodd;fill:#293f9c;fill-opacity:1;fill-rule:nonzero;stroke:none;image-rendering:optimizeQuality;shape-rendering:geometricPrecision;text-rendering:geometricPrecision"
         id="path684-32"
         inkscape:connector-curvature="0" />
      <path
         d="m 316.09945,594.16604 c -0.96771,0 -1.75305,0.78534 -1.75305,1.75305 0,0.96771 0.78534,1.75305 1.75305,1.75305 0.96772,0 1.75305,-0.78534 1.75305,-1.75305 0,-0.96771 -0.78533,-1.75305 -1.75305,-1.75305"
         style="clip-rule:evenodd;fill:#293f9c;fill-opacity:1;fill-rule:nonzero;stroke:none;image-rendering:optimizeQuality;shape-rendering:geometricPrecision;text-rendering:geometricPrecision"
         id="path688-9"
         inkscape:connector-curvature="0" />
      <path
         d="m 318.17482,591.20596 c -0.76673,0 -1.38458,0.62157 -1.38458,1.38457 0,0.76301 0.61785,1.38458 1.38458,1.38458 0.76301,0 1.38458,-0.62157 1.38458,-1.38458 0,-0.763 -0.62157,-1.38457 -1.38458,-1.38457"
         style="clip-rule:evenodd;fill:#293f9c;fill-opacity:1;fill-rule:nonzero;stroke:none;image-rendering:optimizeQuality;shape-rendering:geometricPrecision;text-rendering:geometricPrecision"
         id="path692-9"
         inkscape:connector-curvature="0" />
      <path
         d="m 319.35059,588.10705 c -0.69601,0 -1.25802,0.56202 -1.25802,1.25803 0,0.69228 0.56201,1.2543 1.25802,1.2543 0.69229,0 1.25431,-0.56202 1.25431,-1.2543 0,-0.69601 -0.56202,-1.25803 -1.25431,-1.25803"
         style="clip-rule:evenodd;fill:#293f9c;fill-opacity:1;fill-rule:nonzero;stroke:none;image-rendering:optimizeQuality;shape-rendering:geometricPrecision;text-rendering:geometricPrecision"
         id="path696-1"
         inkscape:connector-curvature="0" />
      <path
         d="m 317.69245,585.23406 c -0.74811,0 -1.35107,0.60296 -1.35107,1.35108 0,0.74439 0.60296,1.35107 1.35107,1.35107 0.7444,0 1.35108,-0.60668 1.35108,-1.35107 0,-0.74812 -0.60668,-1.35108 -1.35108,-1.35108"
         style="clip-rule:evenodd;fill:#293f9c;fill-opacity:1;fill-rule:nonzero;stroke:none;image-rendering:optimizeQuality;shape-rendering:geometricPrecision;text-rendering:geometricPrecision"
         id="path700-7"
         inkscape:connector-curvature="0" />
      <path
         d="m 319.64723,581.46147 c -0.68484,0 -1.2357,0.55458 -1.2357,1.2357 0,0.68484 0.55086,1.23941 1.2357,1.23941 0.68484,0 1.23569,-0.55457 1.23569,-1.23941 0,-0.68112 -0.55085,-1.2357 -1.23569,-1.2357"
         style="clip-rule:evenodd;fill:#293f9c;fill-opacity:1;fill-rule:nonzero;stroke:none;image-rendering:optimizeQuality;shape-rendering:geometricPrecision;text-rendering:geometricPrecision"
         id="path704-15"
         inkscape:connector-curvature="0" />
      <path
         d="m 320.41098,584.56522 c -0.50992,0 -0.92305,0.41314 -0.92305,0.92305 0,0.51363 0.41313,0.92677 0.92305,0.92677 0.50991,0 0.92304,-0.41314 0.92304,-0.92677 0,-0.50991 -0.41313,-0.92305 -0.92304,-0.92305"
         style="clip-rule:evenodd;fill:#293f9c;fill-opacity:1;fill-rule:nonzero;stroke:none;image-rendering:optimizeQuality;shape-rendering:geometricPrecision;text-rendering:geometricPrecision"
         id="path708-1"
         inkscape:connector-curvature="0" />
      <path
         d="m 320.35217,578.80399 c -0.47268,0 -0.85605,0.38336 -0.85605,0.85605 0,0.46897 0.38337,0.85233 0.85605,0.85233 0.47269,0 0.85233,-0.38336 0.85233,-0.85233 0,-0.47269 -0.37964,-0.85605 -0.85233,-0.85605"
         style="clip-rule:evenodd;fill:#293f9c;fill-opacity:1;fill-rule:nonzero;stroke:none;image-rendering:optimizeQuality;shape-rendering:geometricPrecision;text-rendering:geometricPrecision"
         id="path712-56"
         inkscape:connector-curvature="0" />
      <path
         d="m 317.56591,578.44109 c -0.82256,0 -1.4888,0.66624 -1.4888,1.48879 0,0.82256 0.66624,1.49251 1.4888,1.49251 0.82256,0 1.48878,-0.66995 1.48878,-1.49251 0,-0.82255 -0.66622,-1.48879 -1.48878,-1.48879"
         style="clip-rule:evenodd;fill:#293f9c;fill-opacity:1;fill-rule:nonzero;stroke:none;image-rendering:optimizeQuality;shape-rendering:geometricPrecision;text-rendering:geometricPrecision"
         id="path716-2"
         inkscape:connector-curvature="0" />
      <path
         d="m 319.28546,575.54689 c -0.64018,0 -1.15753,0.51735 -1.15753,1.15753 0,0.64018 0.51735,1.16126 1.15753,1.16126 0.64017,0 1.15752,-0.52108 1.15752,-1.16126 0,-0.64018 -0.51735,-1.15753 -1.15752,-1.15753"
         style="clip-rule:evenodd;fill:#293f9c;fill-opacity:1;fill-rule:nonzero;stroke:none;image-rendering:optimizeQuality;shape-rendering:geometricPrecision;text-rendering:geometricPrecision"
         id="path720-0"
         inkscape:connector-curvature="0" />
      <path
         d="m 319.01673,573.00999 c -0.42802,0 -0.77417,0.34615 -0.77417,0.77417 0,0.42803 0.34615,0.77417 0.77417,0.77417 0.42803,0 0.77416,-0.34614 0.77416,-0.77417 0,-0.42802 -0.34613,-0.77417 -0.77416,-0.77417"
         style="clip-rule:evenodd;fill:#293f9c;fill-opacity:1;fill-rule:nonzero;stroke:none;image-rendering:optimizeQuality;shape-rendering:geometricPrecision;text-rendering:geometricPrecision"
         id="path724-2"
         inkscape:connector-curvature="0" />
      <path
         d="m 306.52691,594.05178 c -1.54834,0 -2.80637,1.2543 -2.80637,2.80264 0,1.55207 1.25803,2.80637 2.80637,2.80637 1.54834,0 2.80265,-1.2543 2.80265,-2.80637 0,-1.54834 -1.25431,-2.80264 -2.80265,-2.80264"
         style="clip-rule:evenodd;fill:#293f9c;fill-opacity:1;fill-rule:nonzero;stroke:none;image-rendering:optimizeQuality;shape-rendering:geometricPrecision;text-rendering:geometricPrecision"
         id="path728-9"
         inkscape:connector-curvature="0" />
      <path
         d="m 291.74511,596.75616 c -1.95404,0 -3.53588,1.58184 -3.53588,3.53587 0,1.95404 1.58184,3.53588 3.53588,3.53588 1.95403,0 3.53587,-1.58184 3.53587,-3.53588 0,-1.95403 -1.58184,-3.53587 -3.53587,-3.53587"
         style="clip-rule:evenodd;fill:#293f9c;fill-opacity:1;fill-rule:nonzero;stroke:none;image-rendering:optimizeQuality;shape-rendering:geometricPrecision;text-rendering:geometricPrecision"
         id="path732-4"
         inkscape:connector-curvature="0" />
      <path
         d="m 295.59325,603.8949 c -1.6935,0 -3.06691,1.37341 -3.06691,3.06691 0,1.69349 1.37341,3.06318 3.06691,3.06318 1.6935,0 3.0669,-1.36969 3.0669,-3.06318 0,-1.6935 -1.3734,-3.06691 -3.0669,-3.06691"
         style="clip-rule:evenodd;fill:#293f9c;fill-opacity:1;fill-rule:nonzero;stroke:none;image-rendering:optimizeQuality;shape-rendering:geometricPrecision;text-rendering:geometricPrecision"
         id="path736-57"
         inkscape:connector-curvature="0" />
      <path
         d="m 302.41376,602.97334 c -1.5744,0 -2.85103,1.27664 -2.85103,2.85103 0,1.5744 1.27663,2.85103 2.85103,2.85103 1.5744,0 2.85103,-1.27663 2.85103,-2.85103 0,-1.57439 -1.27663,-2.85103 -2.85103,-2.85103"
         style="clip-rule:evenodd;fill:#293f9c;fill-opacity:1;fill-rule:nonzero;stroke:none;image-rendering:optimizeQuality;shape-rendering:geometricPrecision;text-rendering:geometricPrecision"
         id="path740-2"
         inkscape:connector-curvature="0" />
      <path
         d="m 308.29001,600.36759 c -1.46645,0 -2.65377,1.18731 -2.65377,2.65377 0,1.46645 1.18732,2.65376 2.65377,2.65376 1.46646,0 2.65376,-1.18731 2.65376,-2.65376 0,-1.46646 -1.1873,-2.65377 -2.65376,-2.65377"
         style="clip-rule:evenodd;fill:#293f9c;fill-opacity:1;fill-rule:nonzero;stroke:none;image-rendering:optimizeQuality;shape-rendering:geometricPrecision;text-rendering:geometricPrecision"
         id="path744-2"
         inkscape:connector-curvature="0" />
      <path
         d="m 312.88813,597.28952 c -1.22453,0 -2.21829,0.99377 -2.21829,2.2183 0,1.22452 0.99376,2.21829 2.21829,2.21829 1.22453,0 2.21829,-0.99377 2.21829,-2.21829 0,-1.22453 -0.99376,-2.2183 -2.21829,-2.2183"
         style="clip-rule:evenodd;fill:#293f9c;fill-opacity:1;fill-rule:nonzero;stroke:none;image-rendering:optimizeQuality;shape-rendering:geometricPrecision;text-rendering:geometricPrecision"
         id="path748-7"
         inkscape:connector-curvature="0" />
      <path
         d="m 311.74921,591.38983 c -1.28035,0 -2.32251,1.03843 -2.32251,2.32251 0,1.28035 1.04216,2.31878 2.32251,2.31878 1.28036,0 2.31879,-1.03843 2.31879,-2.31878 0,-1.28408 -1.03843,-2.32251 -2.31879,-2.32251"
         style="clip-rule:evenodd;fill:#293f9c;fill-opacity:1;fill-rule:nonzero;stroke:none;image-rendering:optimizeQuality;shape-rendering:geometricPrecision;text-rendering:geometricPrecision"
         id="path752-25"
         inkscape:connector-curvature="0" />
      <path
         d="m 276.23007,590.35549 c -1.28036,0 -2.32251,1.03843 -2.32251,2.31879 0,1.28408 1.04215,2.32251 2.32251,2.32251 1.28036,0 2.3188,-1.03843 2.32251,-2.32251 -0.004,-1.28036 -1.04215,-2.31879 -2.32251,-2.31879 m -5.59039,-1.80888 c -1.22453,0 -2.2183,0.99377 -2.2183,2.2183 0,1.22453 0.99377,2.21829 2.2183,2.21829 1.22452,0 2.21829,-0.99376 2.21829,-2.21829 0,-1.22453 -0.99377,-2.2183 -2.21829,-2.2183 m -0.7444,-6.17847 c -1.46646,0 -2.65377,1.19103 -2.65377,2.65749 0,1.46646 1.18731,2.65377 2.65377,2.65377 1.46646,0 2.65377,-1.18731 2.65377,-2.65377 0,-1.46646 -1.18731,-2.65749 -2.65377,-2.65749 m 0.50991,-6.68465 c -1.5744,0 -2.85103,1.27663 -2.85103,2.85102 0,1.5744 1.27663,2.85103 2.85103,2.85103 1.5744,0 2.85475,-1.27663 2.85475,-2.85103 0,-1.57439 -1.28035,-2.85102 -2.85475,-2.85102 m 2.42673,-6.68838 c -1.6935,0 -3.06318,1.36968 -3.06318,3.06318 0,1.69349 1.36968,3.0669 3.06318,3.0669 1.69349,0 3.06689,-1.37341 3.06689,-3.0669 0,-1.6935 -1.3734,-3.06318 -3.06689,-3.06318 m 7.70075,-0.46897 c -1.95403,0 -3.53587,1.58183 -3.53587,3.53587 0,1.95031 1.58184,3.53587 3.53587,3.53587 1.95403,0 3.53587,-1.58556 3.53587,-3.53587 0,-1.95404 -1.58184,-3.53587 -3.53587,-3.53587 m -4.41426,15.24891 c -1.55206,0 -2.80636,1.25802 -2.80636,2.80636 0,1.54834 1.2543,2.80265 2.80636,2.80265 1.54835,0 2.80264,-1.25431 2.80264,-2.80265 0,-1.54834 -1.25429,-2.80636 -2.80264,-2.80636 m 13.73407,24.38262 c -0.42802,0 -0.77416,0.34987 -0.77416,0.77417 0,0.42803 0.34614,0.77417 0.77416,0.77417 0.42803,0 0.77417,-0.34614 0.77417,-0.77417 0,-0.42802 -0.34614,-0.77417 -0.77417,-0.77417 m -2.66492,-1.61161 c -0.64018,0 -1.15754,0.51736 -1.15754,1.15753 0,0.64018 0.51736,1.15754 1.15754,1.15754 0.64018,0.004 1.16125,-0.51736 1.16125,-1.15754 0,-0.64017 -0.52107,-1.15753 -1.16125,-1.15753 m -1.9317,-3.43165 c -0.82256,0 -1.4888,0.66623 -1.4888,1.48878 0,0.82256 0.66624,1.48879 1.4888,1.48879 0.82254,0 1.48878,-0.66623 1.48878,-1.48879 0,-0.82255 -0.66624,-1.48878 -1.48878,-1.48878 m -1.15754,3.18228 c -0.4727,0 -0.85605,0.38336 -0.85605,0.85605 0,0.47269 0.38335,0.85233 0.85605,0.85233 0.47269,0 0.85233,-0.37964 0.85233,-0.85233 0,-0.47269 -0.37964,-0.85605 -0.85233,-0.85605 m -5.06188,-2.96269 c -0.50991,0 -0.92678,0.41314 -0.92305,0.92305 0,0.50991 0.41314,0.92305 0.92305,0.92305 0.50991,0 0.92305,-0.41314 0.92305,-0.92305 0,-0.50991 -0.41314,-0.92305 -0.92305,-0.92305 m 2.78031,0.45036 c -0.68112,0 -1.23569,0.55457 -1.23569,1.23569 0,0.68485 0.55457,1.23942 1.23569,1.23942 0.68485,0 1.23941,-0.55457 1.23941,-1.23942 0,-0.68112 -0.55456,-1.23569 -1.23941,-1.23569 m -2.38579,-3.75175 c -0.74811,0 -1.35107,0.60668 -1.35107,1.35108 0,0.74811 0.60296,1.35107 1.35107,1.35107 0.7444,0 1.34736,-0.60296 1.34736,-1.35107 0,-0.7444 -0.60296,-1.35108 -1.34736,-1.35108 m -3.23811,0.14144 c -0.69228,0 -1.2543,0.56574 -1.2543,1.25802 0,0.69229 0.56202,1.25431 1.2543,1.25431 0.69601,0 1.25803,-0.56202 1.25803,-1.25431 0,-0.69228 -0.56202,-1.25802 -1.25803,-1.25802 m -2.2034,-2.75798 c -0.76672,0 -1.38829,0.61785 -1.38829,1.38457 0,0.76301 0.62157,1.38457 1.38829,1.38457 0.763,0 1.38085,-0.62156 1.38085,-1.38457 0,-0.76672 -0.61785,-1.38457 -1.38085,-1.38457 m -1.8461,-3.82991 c -0.96771,0 -1.75304,0.78534 -1.75304,1.75305 0,0.96771 0.78533,1.75305 1.75304,1.75305 0.96771,0 1.75304,-0.78534 1.75304,-1.75305 0,-0.96771 -0.78533,-1.75305 -1.75304,-1.75305 m 5.1847,2.13641 c -0.98259,0 -1.78282,0.7965 -1.78282,1.78283 0,0.9826 0.80023,1.78282 1.78282,1.78282 0.98633,0 1.78282,-0.80022 1.78282,-1.78282 0,-0.98633 -0.79649,-1.78283 -1.78282,-1.78283 m 5.92166,3.30883 c -1.02726,0 -1.86098,0.83373 -1.86098,1.86099 0,1.02726 0.83372,1.86098 1.86098,1.86098 1.02726,0 1.85726,-0.83372 1.85726,-1.86098 0,-1.02726 -0.83,-1.86099 -1.85726,-1.86099 m -1.45901,-5.19214 c -1.29898,0 -2.35229,1.05331 -2.35229,2.35228 0,1.29897 1.05331,2.35229 2.35229,2.35229 1.29896,0 2.35228,-1.05332 2.35228,-2.35229 0,-1.29897 -1.05332,-2.35228 -2.35228,-2.35228 m -0.10049,-6.39435 c -1.57067,0 -2.84732,1.27664 -2.84732,2.84731 0,1.57439 1.27665,2.85103 2.84732,2.85103 1.57438,0 2.85102,-1.27664 2.85102,-2.85103 0,-1.57067 -1.27664,-2.84731 -2.85102,-2.84731 m -4.19095,-11.31851 c -1.85726,0 -3.36094,1.50368 -3.36094,3.35722 0,1.85726 1.50368,3.35721 3.36094,3.36094 1.85354,-0.004 3.35722,-1.5074 3.35722,-3.36094 0,-1.85354 -1.50368,-3.35722 -3.35722,-3.35722 m 6.53206,4.04206 c -1.89821,0 -3.43538,1.53717 -3.43538,3.43538 0,1.8982 1.53717,3.43538 3.43538,3.43538 1.8982,0 3.43538,-1.53718 3.43538,-3.43538 0,-1.89821 -1.53718,-3.43538 -3.43538,-3.43538 m 3.92669,-7.79008 c -2.12525,0 -3.84853,1.72327 -3.84853,3.84851 0,2.12525 1.72328,3.84852 3.84853,3.84852 2.12523,0 3.84851,-1.72327 3.84851,-3.84852 0,-2.12524 -1.72328,-3.84851 -3.84851,-3.84851"
         style="clip-rule:evenodd;fill:#7f8384;fill-opacity:1;fill-rule:nonzero;stroke:none;image-rendering:optimizeQuality;shape-rendering:geometricPrecision;text-rendering:geometricPrecision"
         id="path756-2"
         inkscape:connector-curvature="0" />
      <g
         transform="matrix(0.89072737,0,0,0.89072735,-564.20116,580.78027)"
         id="g20561"
         style="clip-rule:evenodd;fill-rule:evenodd;image-rendering:optimizeQuality;shape-rendering:geometricPrecision;text-rendering:geometricPrecision">
        <path
           sodipodi:nodetypes="sssscsssscs"
           style="clip-rule:evenodd;fill:#aa1a27;fill-opacity:1;fill-rule:evenodd;stroke:#ffffff;stroke-width:7.6147995;stroke-miterlimit:4;stroke-dasharray:none;stroke-opacity:1;image-rendering:optimizeQuality;shape-rendering:geometricPrecision;text-rendering:geometricPrecision"
           d="m 1054.4346,-68.623623 c 2.2538,0 4.0846,-1.830851 4.0846,-4.22513 l 0,-37.604357 c 0,-2.39428 -1.8308,-4.22513 -4.0846,-4.22513 l -101.54538,0 -79.5747,0 c -2.3943,0 -4.2251,1.83085 -4.2251,4.22513 l 0,37.604357 c 0,2.394279 1.8308,4.22513 4.2251,4.22513 l 79.5747,0 z"
           id="path24168-5-2"
           inkscape:connector-curvature="0" />
        <path
           sodipodi:nodetypes="cssssc"
           style="clip-rule:evenodd;fill:#aa1a27;fill-opacity:1;fill-rule:evenodd;stroke:none;stroke-width:0.40000001;stroke-miterlimit:4;stroke-dasharray:none;stroke-opacity:1;image-rendering:optimizeQuality;shape-rendering:geometricPrecision;text-rendering:geometricPrecision"
           d="m 952.88922,-68.623623 101.54538,0 c 2.2538,0 4.0846,-1.830851 4.0846,-4.22513 l 0,-37.604357 c 0,-2.39428 -1.8308,-4.22513 -4.0846,-4.22513 l -101.54538,0"
           id="path24192-6-8"
           inkscape:connector-curvature="0" />
        <path
           sodipodi:nodetypes="cssssc"
           style="clip-rule:evenodd;fill:#0e2d6d;fill-opacity:1;fill-rule:nonzero;stroke:none;stroke-width:0.40000001;stroke-miterlimit:4;stroke-dasharray:none;stroke-opacity:1;image-rendering:optimizeQuality;shape-rendering:geometricPrecision;text-rendering:geometricPrecision"
           d="m 952.88922,-114.67824 -79.5747,0 c -2.3943,0 -4.2251,1.83085 -4.2251,4.22513 l 0,37.604357 c 0,2.394279 1.8308,4.22513 4.2251,4.22513 l 79.5747,0"
           id="path24194-9-6"
           inkscape:connector-curvature="0" />
        <path
           style="clip-rule:evenodd;fill:#93acd3;fill-opacity:1;fill-rule:evenodd;stroke:none;image-rendering:optimizeQuality;shape-rendering:geometricPrecision;text-rendering:geometricPrecision"
           d="m 952.88922,-113.69244 -80.4194,0 c 0,0 1.6896,9.43632 12.8164,17.464286 0,0 5.6334,4.225131 9.2948,4.225131 l 58.3082,0 0,-21.689417 z"
           id="path24196-0-7"
           inkscape:connector-curvature="0" />
        <path
           style="clip-rule:evenodd;fill:#eb9098;fill-opacity:1;fill-rule:evenodd;stroke:none;image-rendering:optimizeQuality;shape-rendering:geometricPrecision;text-rendering:geometricPrecision"
           d="m 952.88922,-113.69244 102.39018,0 c 0,0 -1.8307,9.43632 -12.8165,17.464286 0,0 -5.6334,4.225131 -9.436,4.225131 l -80.13768,0 0,-21.689417 z"
           id="path24198-9-7"
           inkscape:connector-curvature="0" />
        <path
           style="clip-rule:evenodd;fill:#ffffff;fill-opacity:1;fill-rule:nonzero;stroke:none;image-rendering:optimizeQuality;shape-rendering:geometricPrecision;text-rendering:geometricPrecision"
           d="m 924.43962,-71.862894 c 0.5628,0.140871 1.6901,0.563491 3.0985,0.563491 2.3944,0.140879 3.6616,-0.84486 4.6475,-2.957711 l 12.8164,-28.731396 c -0.5628,-0.28238 -1.6901,-0.56349 -2.6761,-0.56349 -1.6902,0 -3.8021,0.28111 -5.3517,3.661887 l -4.0844,9.858749 -8.169,-13.239016 c -0.5629,-0.28239 -1.8308,-0.42263 -2.6755,-0.42263 -2.958,0 -4.5069,1.12674 -6.197,2.81685 l -8.0278,8.732137 6.3377,9.99956 c 1.2677,1.830919 2.8166,2.81678 5.3516,2.81678 1.5495,0 2.9579,-0.42199 3.5214,-0.704181 l -7.4647,-11.54879 5.4928,-5.774429 8.8732,14.08382 -5.4929,11.40811 z m -16.901,-10.985619 c 0,2.11266 -0.7041,3.380209 -4.9291,3.380209 -0.5628,0 -0.986,0 -1.4083,0 l 0,-28.168026 c 0,-2.1126 0.7041,-4.22526 4.7879,-4.22526 0.5628,0 1.1272,0 1.5495,0.14087 l 0,28.872266 z m -8.4507,-4.08439 c 0,3.94358 -2.5348,6.76036 -7.746,7.32373 -3.8026,0.42262 -9.2955,-0.14088 -11.8303,-0.42199 -0.1409,-0.42199 -0.2811,-0.98586 -0.2811,-1.408361 0,-3.380209 1.972,-4.225319 3.6621,-4.225319 1.8308,0 4.6474,0.42262 6.9006,0.42262 2.2538,0 2.958,-0.84486 2.958,-1.69011 0,-0.84486 -0.986,-1.408231 -2.8168,-1.68985 l -4.9292,-0.985861 c -4.0845,-0.84486 -6.3383,-3.661959 -6.3383,-6.76042 0,-3.661886 2.5356,-6.760416 7.7466,-7.323776 3.8027,-0.42199 8.5914,0.14087 11.1263,0.42262 0.1409,0.42198 0.2811,0.8448 0.2811,1.26754 0,3.521017 -1.8314,4.225267 -3.5208,4.225267 -1.4091,0 -3.5216,-0.28239 -5.9154,-0.28239 -2.3943,0 -3.3802,0.70418 -3.3802,1.40836 0,0.98586 0.9859,1.26748 2.3944,1.549229 l 4.7879,0.84486 c 4.93,1.126801 6.9012,3.802711 6.9012,7.323541 z"
           id="path24200-1-9"
           inkscape:connector-curvature="0" />
        <path
           style="clip-rule:evenodd;fill:#ffffff;fill-opacity:1;fill-rule:nonzero;stroke:none;image-rendering:optimizeQuality;shape-rendering:geometricPrecision;text-rendering:geometricPrecision"
           d="m 975.98722,-75.947283 -8.4509,0 c -0.986,0 -1.6901,0 -2.3943,-0.28111 -0.5628,-0.14088 -0.9853,-0.42262 -1.2672,-0.70418 -0.2811,-0.28238 -0.5628,-0.70418 -0.7041,-1.12667 0,-0.422631 -0.1409,-0.98593 -0.1409,-1.40842 l 0,-23.661147 c 0,-0.5635 0.1409,-0.98586 0.1409,-1.5493 0.1409,-0.42198 0.422,-0.70418 0.7041,-1.12667 0.2811,-0.28111 0.7042,-0.56349 1.2672,-0.70418 0.7042,-0.14087 1.4083,-0.28238 2.3943,-0.28238 l 8.1691,0 c 2.3942,0 4.5068,0.14087 6.0557,0.70418 1.5496,0.42199 3.09851,0.8448 3.944,1.54929 0.9859,0.70412 1.8307,1.69011 2.253,2.5351 0.422,0.98586 0.7042,1.97166 0.7042,3.098457 0,1.54929 -0.422,2.81684 -1.4083,3.94358 -0.986,1.126729 -2.2531,2.11259 -3.9433,2.53509 l -0.7042,0.28238 0.8449,0.281109 c 2.3943,0.704181 4.0845,1.690111 5.0704,2.816911 0.986,1.26735 1.549,2.675779 1.549,4.08413 0,2.95772 -1.2672,5.070319 -3.5209,6.61961 -2.3943,1.68998 -5.9152,2.39428 -10.5626,2.39428 m -5.3524,-5.49287 0.2811,0 4.22501,0 c 2.2538,0 3.66219,-0.28238 4.7887,-0.844801 1.12659,-0.563489 1.5496,-1.549289 1.5496,-3.09859 0,-0.421979 0,-0.84479 -0.28111,-1.26761 -0.1408,-0.421979 -0.422,-0.844789 -0.84569,-1.26748 -0.42191,-0.281109 -0.98591,-0.562859 -1.83081,-0.704179 -0.8449,-0.14087 -1.83059,-0.42262 -3.0985,-0.42262 l -4.5068,0 -0.28119,0 0,0.28238 0,7.04185 0,0.28238 z m 0,-12.39372 0.2811,0 4.22501,0 c 1.12669,0 1.97209,-0.14087 2.67619,-0.282381 0.7042,-0.140869 1.2677,-0.422619 1.6902,-0.84486 0.422,-0.281109 0.7041,-0.704179 0.8448,-1.126669 0.1409,-0.42199 0.2811,-0.84487 0.2811,-1.26762 0,-1.26748 -0.4219,-2.11253 -1.2676,-2.675957 -0.9854,-0.5635 -2.3944,-0.8448 -4.3658,-0.8448 l -4.0844,0 -0.2811,0 0,0.28238 0,6.619606 0,0.140871 z"
           id="path24202-7-0"
           inkscape:connector-curvature="0" />
        <path
           style="clip-rule:evenodd;fill:#ffffff;fill-opacity:1;fill-rule:nonzero;stroke:none;image-rendering:optimizeQuality;shape-rendering:geometricPrecision;text-rendering:geometricPrecision"
           d="m 1001.4787,-82.425953 0,-5.63349 10.8453,0 c 2.5341,0 3.9425,-0.985871 3.9425,-4.366071 0,-0.704179 -0.1409,-1.549239 -0.2811,-1.971789 l -14.506,0 0,-6.056177 11.1268,0 c 2.5344,0 4.084,-0.84486 4.084,-4.2252 0,-0.70418 -0.1409,-1.54929 -0.2811,-1.97179 l -16.75978,0 c -4.7887,0 -5.6333,2.39435 -5.6333,4.92938 l 0,25.492127 0,0.14087 19.29528,0 c 2.5341,0 3.9425,-0.8448 3.9425,-4.2252 0,-0.84486 -0.1409,-1.54929 -0.2811,-2.1126 l -15.492,0 z"
           id="path24204-2-8"
           inkscape:connector-curvature="0" />
        <path
           style="clip-rule:evenodd;fill:#ffffff;fill-opacity:1;fill-rule:nonzero;stroke:none;image-rendering:optimizeQuality;shape-rendering:geometricPrecision;text-rendering:geometricPrecision"
           d="m 1037.8155,-100.45348 6.0558,0 c 1.9719,0 3.9439,-0.84486 3.9439,-4.78857 0,-0.42262 0,-0.98592 -0.1409,-1.54929 l -23.3792,0 c -1.9719,0 -4.0845,0.84486 -4.0845,4.9295 0,0.42199 0.1408,0.98587 0.2811,1.40836 l 9.8584,0 0,24.506197 c 0.5629,0 1.2678,0.14087 1.8307,0.14087 4.6482,0 5.6341,-1.40842 5.6341,-3.661761 l 0,-20.985246 z"
           id="path24206-1-2"
           inkscape:connector-curvature="0" />
      </g>
    </g>
  </g>
</svg>
