<?xml version="1.0" ?><svg id="Layer_1" style="enable-background:new 0 0 64 64;" version="1.1" viewBox="0 0 64 64" xml:space="preserve" xmlns="http://www.w3.org/2000/svg" xmlns:xlink="http://www.w3.org/1999/xlink"><g><path d="M48.90002,62.25h-3.33008l-6.33008-23.42999c-1.87988-6.53003,0.5-11.87,7.72998-17.34003   c0.36477-0.36477,0.42612-0.98201-0.12988-1.26001c-0.13311-0.13229-2.4819-1.00513-4.8501-1.38995   c0.6442-1.43024,1.11011-3.31446,1.11011-5.33002c0-7.43363-6.01477-13.25-13.26001-13.25   c-7.21238,0-13.23999,5.83597-13.23999,13.25c0,4.59023,2.30996,9.14203,7.12988,11.73999   c-2.33984,2.22998-3.60986,4.17999-3.66992,4.27002c-0.16992,0.27997-0.15015,0.64001,0.06006,0.89001   c0.20996,0.25,0.55981,0.32996,0.85986,0.20996c3.27002-1.34998,5.53003-1.5,6.71997-0.45001   c1.1001,0.97003,1.97998,3.69-0.05981,11.05005c-3.19995,5.87-6.13013,12.82996-8.91016,21.03998h-3.62988   c-0.42017,0-0.75,0.33002-0.75,0.75c0,0.40997,0.32983,0.75,0.75,0.75h33.80005c0.40991,0,0.75-0.34003,0.75-0.75   C49.65002,62.58002,49.30994,62.25,48.90002,62.25z M35.12,5.90002h3.67993c1.23125,1.42162,1.71067,2.57714,2.12988,3.67999   L39.07996,12.75H35.12l-1.96997-3.42999L35.12,5.90002z M33.15002,17.67999L35.12,14.25h3.95996l1.84985,3.16998   c-0.50286,1.3229-0.99383,2.37831-2.12988,3.69H35.12L33.15002,17.67999z M33.80994,21.85999l-1.84985,3.19   c-1.38311,0.25147-2.82431,0.28153-4.23022,0c-0.05849-0.10142-1.95917-3.39689-1.83984-3.19L27.87,18.42999h3.95996   L33.80994,21.85999z M27.72986,1.95001c1.40756-0.22225,2.60054-0.31042,4.23022,0l1.84985,3.20001l-1.97998,3.41998H27.87   l-1.97998-3.41998C25.94837,5.04853,27.8489,1.74297,27.72986,1.95001z M20.90979,5.90002h3.68018l1.97998,3.41998   l-1.55005,2.70001L24.58997,12.75H20.63l-1.84009-3.20001C19.28888,8.26825,19.83127,7.05619,20.90979,5.90002z M20.90979,21.10999   c-1.10023-1.25816-1.64462-2.37125-2.11987-3.65997L20.63,14.25h3.95996l1.97998,3.42999l-1.97998,3.42999H20.90979z    M28.69006,29.02997c-1.30005-1.14996-3.24023-1.37-5.88013-0.64996c0.61987-0.72003,1.42993-1.58002,2.40015-2.47003   c6.10814,2.304,12.86307-0.23732,16.0498-5.66998c1.20996,0.16003,2.41016,0.42999,3.62012,0.84003   c-5.58008,3.77997-10.41992,8.95996-14.77002,15.90997C30.71985,33.03998,30.24988,30.40997,28.69006,29.02997z M29.75989,62.25   c0.38013-3.62,2.20996-18.59003,7.39014-27.78998c-0.08369,3.09355,0.84223,5.15753,1.50977,7.94   C35.37,51.29999,36.00989,59.59998,36.33997,62.25H29.75989z"/></g></svg>