<!DOCTYPE svg PUBLIC "-//W3C//DTD SVG 1.1//EN" "http://www.w3.org/Graphics/SVG/1.1/DTD/svg11.dtd">
<!-- Uploaded to: SVG Repo, www.svgrepo.com, Transformed by: SVG Repo Mixer Tools -->
<svg fill="#000000" width="64px" height="64px" viewBox="0 0 24 24" xmlns="http://www.w3.org/2000/svg" stroke="#000000" stroke-width="0.00024000000000000003">
<g id="SVGRepo_bgCarrier" stroke-width="0"/>
<g id="SVGRepo_tracerCarrier" stroke-linecap="round" stroke-linejoin="round"/>
<g id="SVGRepo_iconCarrier"> <path fill-rule="evenodd" d="M7,16 L17,16 C19.7614237,16 22,18.2385763 22,21 C22,21.5522847 21.5522847,22 21,22 C20.4871642,22 20.0644928,21.6139598 20.0067277,21.1166211 L19.9949073,20.8237272 C19.9070404,19.3072462 18.6927538,18.0929596 17.1762728,18.0050927 L17,18 L7,18 C5.34314575,18 4,19.3431458 4,21 C4,21.5522847 3.55228475,22 3,22 C2.44771525,22 2,21.5522847 2,21 C2,18.3112453 4.12230671,16.1181819 6.78311038,16.0046195 L7,16 Z M12,2 C12.4062134,2 12.8078123,2.04051239 13.2003571,2.12029429 C13.7415768,2.23029326 14.0911502,2.75821022 13.9811512,3.29942984 C13.8711522,3.84064945 13.3432353,4.19022286 12.8020157,4.08022389 C12.5403924,4.02705085 12.2722375,4 12,4 C9.790861,4 8,5.790861 8,8 C8,10.209139 9.790861,12 12,12 C13.2748073,12 14.4481613,11.4008085 15.2000781,10.4003828 C15.5318999,9.95889366 16.1587924,9.86999074 16.6002816,10.2018126 C17.0417708,10.5336345 17.1306737,11.1605269 16.7988518,11.6020161 C15.6730783,13.0998584 13.9103951,14 12,14 C8.6862915,14 6,11.3137085 6,8 C6,4.6862915 8.6862915,2 12,2 Z M17.7071068,2.29289322 L19,3.585 L20.2928932,2.29289322 C20.6533772,1.93240926 21.2206082,1.90467972 21.6128994,2.20970461 L21.7071068,2.29289322 C22.0675907,2.65337718 22.0953203,3.22060824 21.7902954,3.61289944 L21.7071068,3.70710678 L20.415,5 L21.7071068,6.29289322 C22.0976311,6.68341751 22.0976311,7.31658249 21.7071068,7.70710678 C21.3165825,8.09763107 20.6834175,8.09763107 20.2928932,7.70710678 L19,6.415 L17.7071068,7.70710678 C17.3466228,8.06759074 16.7793918,8.09532028 16.3871006,7.79029539 L16.2928932,7.70710678 C15.9324093,7.34662282 15.9046797,6.77939176 16.2097046,6.38710056 L16.2928932,6.29289322 L17.585,5 L16.2928932,3.70710678 C15.9023689,3.31658249 15.9023689,2.68341751 16.2928932,2.29289322 C16.6834175,1.90236893 17.3165825,1.90236893 17.7071068,2.29289322 Z"/> </g>
</svg>